{"title":"Big Faces Daffy Duck (2011) DVDRip XviD AC3 peaSoup","uid":9258325,"size":1570587197,"categoryP":"video","categoryS":"tv_shows","magnet":"?xt=urn:btih:150be438cf350fa4b4c79cc9731f07b2c39f6782&amp;dn=Big+Faces+Daffy+Duck+%282011%29+DVDRip+XviD+AC3+peaSoup&amp;tr=udp%3A%2F%2Ftracker.openbittorrent.com%3A80&amp;tr=udp%3A%2F%2Fopen.demonii.com%3A1337&amp;tr=udp%3A%2F%2Ftracker.coppersurfer.tk%3A6969&amp;tr=udp%3A%2F%2Fexodus.desync.com%3A6969","seeders":1,"leechers":4,"uploader":"peaSoup","files":-1,"time":1385590946,"description":"A black, maladjusted mallard, Daffy Duck is a master of indignant outrage and a self-doubting egomaniac. His own worst enemy and the victim of his own aggressive behaviour, Daffy exists only to win, which he almost never does. He's wild, crazy, unpredictable and funny. And with Daffy, it's always &quot;me, me, me&quot;.\n\nEpisodes:\n1) Duck Amuck\n2) Dough for the Do-Do\n3) Drip along Daffy\n4) Scaredy Cat\n5) The Duckster\n6) The Scarlett Pimpernickel\n7) Yankee Doodle Daffy\n8) Porky Chops\n9) Wearing of the Grin\n10) Deduce, You Say\n11) Boobs in the Woods\n12) Golden Yeggs\n13) Rabbit Fire\n14) Duck Dodgers in the 24 1/2 th Century                                           &lt;a href=&quot; http://imageshack.com/a/img9/705/hirm.jpg&quot; rel=&quot;nofollow&quot; target=&quot;_NEW&quot;&gt; http://imageshack.com/a/img9/705/hirm.jpg&lt;/a&gt;                                           &lt;a href=&quot; http://imageshack.com/a/img547/5986/wumm.jpg&quot; rel=&quot;nofollow&quot; target=&quot;_NEW&quot;&gt; http://imageshack.com/a/img547/5986/wumm.jpg&lt;/a&gt;                                        &lt;a href=&quot; http://imageshack.com/a/img854/9180/yzea.jpg&quot; rel=&quot;nofollow&quot; target=&quot;_NEW&quot;&gt; http://imageshack.com/a/img854/9180/yzea.jpg&lt;/a&gt;                                        &lt;a href=&quot; http://imageshack.com/a/img32/2944/ufym.jpg&quot; rel=&quot;nofollow&quot; target=&quot;_NEW&quot;&gt; http://imageshack.com/a/img32/2944/ufym.jpg&lt;/a&gt;                                         &lt;a href=&quot; http://imageshack.com/a/img706/2701/cl6i.jpg&quot; rel=&quot;nofollow&quot; target=&quot;_NEW&quot;&gt; http://imageshack.com/a/img706/2701/cl6i.jpg&lt;/a&gt;                                         Format                                   : AVI\nFormat/Info                              : Audio Video Interleave\nFormat profile                           : OpenDML\nFile size                                : 1.43 GiB\nDuration                                 : 1h 35mn\nOverall bit rate                         : 2 144 Kbps\nMovie name                               : Big Faces Daffy Duck (2011) DVDRip XviD AC3 peaSoup\nWriting application                      : Lavf53.21.0\nOriginal source form/Name                : BEST_OF_DAFFY\n\nVideo\nID                                       : 0\nFormat                                   : MPEG-4 Visual\nFormat profile                           : Advanced Simple@L5\nFormat settings, BVOP                    : 2\nFormat settings, QPel                    : No\nFormat settings, GMC                     : No warppoints\nFormat settings, Matrix                  : Default (H.263)\nMuxing mode                              : Packed bitstream\nCodec ID                                 : XVID\nCodec ID/Hint                            : XviD\nDuration                                 : 1h 35mn\nBit rate                                 : 1 940 Kbps\nWidth                                    : 720 pixels\nHeight                                   : 540 pixels\nDisplay aspect ratio                     : 4:3\nFrame rate                               : 25.000 fps\nColor space                              : YUV\nChroma subsampling                       : 4:2:0\nBit depth                                : 8 bits\nScan type                                : Progressive\nCompression mode                         : Lossy\nBits/(Pixel*Frame)                       : 0.200\nStream size                              : 1.30 GiB (90%)\nWriting library                          : XviD 1.2.1 (UTC 2008-12-04)\n\nAudio\nID                                       : 1\nFormat                                   : AC-3\nFormat/Info                              : Audio Coding 3\nMode extension                           : CM (complete main)\nFormat settings, Endianness              : Big\nCodec ID                                 : 2000\nDuration                                 : 1h 35mn\nBit rate mode                            : Constant\nBit rate                                 : 192 Kbps\nChannel count                            : 1 channel\nChannel positions                        : Front: C\nSampling rate                            : 48.0 KHz\nBit depth                                : 16 bits\nCompression mode                         : Lossy\nStream size                              : 131 MiB (9%)\nAlignment                                : Aligned on interleaves\nInterleave, duration                     : 32 ms (0.80 video frame)\n\n2 Pass High Quality Encoding Applied","torrent":{"xt":"urn:btih:150be438cf350fa4b4c79cc9731f07b2c39f6782","amp;dn":"Big+Faces+Daffy+Duck+%282011%29+DVDRip+XviD+AC3+peaSoup","amp;tr":["udp%3A%2F%2Ftracker.openbittorrent.com%3A80","udp%3A%2F%2Fopen.demonii.com%3A1337","udp%3A%2F%2Ftracker.coppersurfer.tk%3A6969","udp%3A%2F%2Fexodus.desync.com%3A6969"],"infoHash":"150be438cf350fa4b4c79cc9731f07b2c39f6782","infoHashBuffer":{"type":"Buffer","data":[21,11,228,56,207,53,15,164,180,199,156,201,115,31,7,178,195,159,103,130]},"announce":[],"urlList":[]}}